<svg width="77" height="61" viewBox="0 0 77 61" fill="none" xmlns="http://www.w3.org/2000/svg">
<path fill-rule="evenodd" clip-rule="evenodd" d="M17.4117 40.1615C17.2703 40.3487 17.0639 40.4288 16.8835 40.3398L13.1614 43.2964C12.3242 43.9913 12.0412 45.0599 12.1447 46.0664C12.1827 46.4754 12.2861 46.8675 12.4406 47.2329L12.4535 47.2687C12.608 47.6158 12.7883 47.9189 13.0198 48.1681C13.6125 48.8008 14.4238 49.0056 15.2993 48.3196L18.3517 45.8702C18.5968 45.6746 18.9058 45.7902 19.0473 46.1284C19.1887 46.4582 19.0985 46.8858 18.867 47.0814C18.0428 47.7941 17.7718 48.863 17.8753 49.8598C17.9142 50.2694 18.0169 50.679 18.1843 51.0354C18.3388 51.4008 18.545 51.7212 18.7893 51.9794C19.3691 52.5762 20.1674 52.7541 21.0175 52.0772C21.8675 51.445 22.7429 50.6172 23.58 50.0379C23.8251 49.8423 24.1469 49.9581 24.2884 50.2968C24.417 50.6259 24.3402 51.0443 24.1082 51.2402C23.271 51.9438 23.0009 53.0211 23.1036 54.0186C23.1552 54.4282 23.2581 54.8292 23.4124 55.1943C23.5669 55.5596 23.7731 55.8801 24.0182 56.1293C24.5975 56.735 25.4086 56.9131 26.2587 56.2365C27.3408 55.4262 28.4612 54.3665 29.5426 53.618C29.7877 53.4223 30.0966 53.5382 30.2382 53.8766C30.3797 54.2059 30.29 54.6244 30.058 54.8203C29.2338 55.5238 28.9506 56.6011 29.0664 57.59C29.1052 58.0083 29.2079 58.4181 29.3753 58.7743C29.5169 59.1397 29.7361 59.4601 29.9679 59.7096L29.9938 59.7358C30.5731 60.3151 31.3716 60.4929 32.2087 59.8252L35.4415 57.2422L19.2657 44.3203C19.1887 44.2581 19.1242 44.1694 19.0858 44.0713L17.4117 40.1615ZM59.1376 38.8436L38.1845 21.4516C36.3039 21.4516 34.5269 21.3177 32.9173 20.8189L32.8914 20.8103C31.1912 20.2757 29.6843 19.3318 28.4483 17.7199C28.023 17.1764 27.714 16.5976 27.5084 16.0104L18.0039 38.7811L19.8845 43.1983L36.4333 56.4134C37.0256 56.8768 37.6951 56.9749 38.3003 56.7434C38.9189 56.5209 39.4592 55.9776 39.8072 55.1669C40.1291 54.3744 40.2068 53.4658 40.0521 52.6382V52.6202C39.8976 51.7827 39.5241 51.0263 38.9571 50.5545C38.7256 50.3581 38.6481 49.931 38.7767 49.6014C38.9189 49.2632 39.2277 49.1474 39.4723 49.3433C40.6961 50.323 41.9838 51.4179 43.2197 52.3354C43.7996 52.7983 44.4821 52.8964 45.0871 52.6646C46.3879 52.1839 47.1608 50.3761 46.8391 48.5597V48.5416C46.6846 47.7047 46.2981 46.9473 45.7311 46.4754C45.4998 46.2711 45.4222 45.8524 45.5637 45.5229C45.7052 45.1847 46.0148 45.0688 46.2593 45.2647C47.2121 46.0308 48.2167 46.8858 49.1826 47.598C49.7622 48.0609 50.4448 48.159 51.0501 47.9273C52.3506 47.4463 53.1237 45.6385 52.8014 43.8309V43.8043C52.6467 42.9762 52.2609 42.219 51.6939 41.7381C51.4624 41.5422 51.3851 41.1146 51.5264 40.7855C51.668 40.4468 51.9771 40.331 52.2221 40.5273L55.6992 43.3146C56.2786 43.7687 56.9483 43.8668 57.5669 43.6353C58.6485 43.2432 59.3955 41.9162 59.3955 40.3848C59.3955 39.85 59.3051 39.3156 59.1376 38.8436ZM49.6465 13.2584L58.0044 33.3043L59.9616 37.9891L60.722 39.8144L68.8993 33.2959C65.0484 24.0872 61.2113 14.8884 57.3602 5.68881L49.1953 12.2078L49.2212 12.2703L49.3626 12.5996L49.5045 12.9296L49.6465 13.2584ZM59.086 6.99809L68.526 29.5911L77 22.814L67.573 0.220947L59.086 6.99809ZM55.3515 29.7421L48.4098 13.125L47.4442 13.5257C47.2637 13.5971 47.0835 13.5257 46.9551 13.3652C43.7478 9.34937 41.7134 10.5067 39.8202 11.5932C38.5965 12.2878 37.4375 12.9469 36.034 12.5193C32.9693 11.5843 30.8697 11.6648 29.595 12.3054C29.26 12.4751 28.9769 12.6888 28.7708 12.9202L28.7577 12.9378V12.9469H28.7449V12.9556H28.732V12.9647L28.7061 12.9914V13.0005L28.6802 13.0272V13.0361H28.6679V13.0452L28.655 13.0539V13.063L28.6422 13.0717V13.0808V13.09L28.6161 13.1258L28.6032 13.1433L28.5904 13.1525V13.1616L28.5775 13.1702V13.1794L28.5646 13.188V13.1972L28.5518 13.2063V13.2155L28.5387 13.2241V13.2332V13.2421L28.5259 13.2508V13.2599L28.513 13.2691V13.2782V13.2868L28.5007 13.296V13.3051L28.4878 13.3138V13.3229V13.3321L28.475 13.3407V13.3498V13.359L28.4621 13.3676V13.3768L28.4492 13.3859V13.3946V13.4037L28.4364 13.4128V13.422V13.4306L28.4235 13.4398V13.4487V13.4573L28.4107 13.4664V13.4756V13.4842L28.3978 13.4934V13.5025V13.52V13.5292L28.3719 13.5734V13.5826V13.6006H28.3589V13.6092V13.627L28.3465 13.6362V13.6453V13.6544V13.6631L28.3337 13.6722V13.6814V13.6858V13.695V13.7041L28.3208 13.7132V13.7219V13.731L28.3079 13.7577V13.7668V13.7755V13.7846V13.7938L28.2951 13.8024V13.8116V13.8207V13.8298L28.2822 13.8476V13.8563V13.8654V13.8745V13.8837L28.2692 13.9637V13.9729L28.2563 14.0443V14.0529L28.2435 14.1063V14.1154V14.1245V14.1332V14.1423C28.2306 14.3116 28.2306 14.481 28.2563 14.6591C28.321 15.318 28.6298 16.0304 29.1452 16.6984C30.2396 18.1144 31.592 18.9605 33.1118 19.441L33.1377 19.4501C34.6957 19.9402 36.447 20.0561 38.3274 20.0469C38.4178 20.0469 38.5077 20.0823 38.5854 20.1448L58.1085 36.3438L55.3515 29.7421ZM63.0653 33.7589C62.5249 33.7589 61.9837 33.4735 61.5584 32.9219L61.5203 32.8769C61.095 32.2892 60.8892 31.5143 60.8892 30.7398C60.8892 29.9916 61.095 29.2438 61.4943 28.6559L61.5203 28.6111C61.9578 28.0234 62.5119 27.73 63.0651 27.73C63.6192 27.73 64.186 28.0234 64.6106 28.6111C65.0354 29.1988 65.2417 29.9738 65.2417 30.7398C65.2417 31.4876 65.0483 32.2445 64.6363 32.8238L64.6104 32.8772C64.1864 33.4557 63.6194 33.7589 63.0653 33.7589ZM62.2672 31.9066C62.4864 32.2003 62.7823 32.3428 63.0655 32.3428C63.3622 32.3428 63.6582 32.1914 63.8897 31.8799L63.9156 31.8441C64.1215 31.5326 64.2244 31.1405 64.2244 30.7398C64.2244 30.3303 64.1087 29.9202 63.8897 29.6087C63.6582 29.2972 63.3622 29.1366 63.0655 29.1366C62.7695 29.1366 62.4733 29.2972 62.2415 29.6L62.2159 29.6353C62.0098 29.9382 61.9065 30.3389 61.9065 30.7398C61.9065 31.1494 62.0226 31.559 62.2415 31.8797L62.2672 31.9066ZM8.48686 29.5911L17.914 6.99809L9.42681 0.220947L0 22.814L8.48686 29.5911ZM14.5654 33.3935C14.0246 33.3935 13.4835 33.1175 13.0587 32.5565L13.0198 32.5116C12.5952 31.9239 12.3888 31.1492 12.3888 30.3834C12.3888 29.6351 12.5821 28.8782 12.9939 28.2994L13.0198 28.246C13.4579 27.6672 14.0115 27.3644 14.5653 27.3644C15.1194 27.3644 15.6856 27.6675 16.1109 28.246C16.5357 28.8424 16.7547 29.6173 16.7547 30.3831C16.7547 31.1314 16.5486 31.8794 16.1361 32.4671L16.1108 32.5116C15.6729 33.0998 15.1194 33.3935 14.5654 33.3935ZM13.7671 31.5501C13.9856 31.8438 14.2823 31.9864 14.5654 31.9864C14.8616 31.9864 15.1576 31.8265 15.3896 31.5234L15.4025 31.4876C15.6217 31.185 15.7246 30.7754 15.7246 30.3834C15.7246 29.9738 15.6088 29.5642 15.3896 29.2435C15.1576 28.9315 14.8616 28.7801 14.5654 28.7801C14.2695 28.7801 13.9728 28.9315 13.7412 29.2435L13.7153 29.2789C13.5092 29.582 13.4065 29.9824 13.4065 30.3834C13.4065 30.793 13.5222 31.2025 13.7412 31.5143L13.7671 31.5501ZM48.9121 7.63914C49.1183 7.90644 49.1315 8.35159 48.938 8.64557C48.7578 8.9304 48.4359 8.94794 48.2167 8.68978C45.0232 4.6735 42.9882 5.83135 41.0819 6.9178C39.8719 7.60333 38.6999 8.27106 37.2959 7.84394C35.454 7.27378 33.9608 7.08702 32.763 7.15792C31.4877 7.23796 30.5994 7.63914 30.0712 8.20881C29.8522 8.44028 29.5301 8.38692 29.3627 8.07541C29.1825 7.77254 29.2341 7.32763 29.4531 7.09616C30.1357 6.35679 31.2173 5.84913 32.7242 5.75106C33.9862 5.67102 35.5835 5.87581 37.515 6.47265C38.6095 6.80219 39.64 6.22314 40.6963 5.60852C42.8855 4.37063 45.2417 3.03516 48.9121 7.63914ZM16.9605 38.4607L16.9734 38.452V38.4431V38.434L16.9862 38.4164V38.4075V38.3989L27.2505 13.8288C27.3021 13.3834 27.4178 12.9558 27.624 12.5643C27.6756 12.4753 27.7269 12.3862 27.7785 12.297V12.2878L27.7913 12.2792C27.8174 12.2253 27.8555 12.172 27.8942 12.1186L27.9071 12.1095V12.0919H27.92V12.0828L27.933 12.0653L27.9459 12.0561L27.9587 12.0386V12.0294L27.9716 12.0117L27.9844 12.0025L28.0103 11.985V11.9669L28.0227 11.9583V11.9492L28.0355 11.94L28.3835 11.0942L20.2187 4.57567L8.69264 32.1912L16.8578 38.7102L16.9605 38.4607Z" fill="white"/>
</svg>
