<svg width="62" height="61" viewBox="0 0 62 61" fill="none" xmlns="http://www.w3.org/2000/svg">
<path d="M36.0504 7.69168C37.1256 8.93551 38.7678 10.3136 39.48 11.703C40.9599 14.5899 39.3522 16.7087 37.6809 19.0389C36.8373 20.2151 35.4984 22.6186 34.042 23.3882C29.9859 25.5318 27.7545 22.9522 25.648 21.2956C21.7414 18.2233 19.4492 13.4909 23.8307 9.78398C25.5789 8.30493 28.5904 7.15289 31.1414 6.79225C35.6546 6.1542 35.5762 6.71493 37.1185 9.0979C38.1209 10.6467 41.1421 9.28712 40.142 7.74176C38.5698 5.31254 37.8157 4.07835 34.0517 3.94204C29.8365 3.78938 25.7352 5.15654 22.4983 7.14978C16.5303 10.8247 16.659 17.6649 21.5575 21.9159C26.2746 26.0095 31.6482 30.3579 37.0655 24.7444C39.7693 21.9427 42.9481 18.4193 43.5955 14.8829C44.2177 11.4842 41.3811 9.00468 39.0739 6.33554C37.8339 4.90107 34.8 6.24517 36.0504 7.69168Z" fill="white"/>
<path d="M42.5324 15.4695C45.5873 16.4467 47.7076 18.6133 46.5989 21.264C46.0936 22.4722 44.7717 23.069 43.304 23.4372C42.5795 23.619 40.7842 24.1221 40.0365 23.8839C40.4441 24.1967 40.8517 24.5095 41.2593 24.8223C40.8151 23.5743 42.5533 20.8631 43.1331 19.6393C43.8965 18.0277 44.9475 16.5838 45.2379 14.8717C45.5278 13.162 42.0235 13.1783 41.7363 14.8717C41.3831 16.9545 39.5723 19.2368 38.7632 21.2609C38.2621 22.5146 37.1824 24.2408 37.8828 25.5366C39.039 27.6752 43.9927 26.2426 45.8403 25.5431C49.3989 24.196 50.6439 21.651 50.1961 18.7107C49.7417 15.7271 46.8919 13.9753 43.4633 12.8785C41.3858 12.214 40.4794 14.8128 42.5324 15.4695Z" fill="white"/>
<path d="M16.587 15.988C18.1249 17.1007 18.3317 19.5122 18.9874 21.009C19.6003 22.4081 21.2901 23.7975 21.5161 25.2261C21.8051 24.8394 22.0942 24.4527 22.3832 24.0661C18.2539 25.6088 14.3575 23.0032 14.661 19.7374C14.783 18.4253 15.4328 17.925 16.6971 17.1744C17.5728 16.6545 17.9892 16.2112 18.3862 15.4232C19.1994 13.8093 15.8151 13.1105 15.0097 14.7089C14.7385 15.2473 13.324 15.5951 12.7864 15.9911C12.0124 16.5611 11.5694 17.2385 11.3478 18.0383C10.8554 19.8157 11.1245 21.9408 12.1095 23.5915C14.146 27.0044 19.9596 27.9518 24.1505 26.3861C24.6444 26.2016 25.0854 25.6542 25.0176 25.2261C24.688 23.1424 22.8811 21.5258 22.0662 19.5385C21.3032 17.6776 20.9904 15.4826 19.063 14.0881C17.4241 12.9024 14.9433 14.7988 16.587 15.988Z" fill="white"/>
<path d="M20.0808 17.4897C21.6833 18.6473 23.3047 19.722 25.5237 20.0718C27.6794 20.4116 29.8313 20.0925 31.7251 19.2598C33.6799 18.4002 31.9181 16.0776 29.9578 16.9397C27.0681 18.2103 24.7222 17.1539 22.5567 15.5897C20.9167 14.4051 18.4358 16.3015 20.0808 17.4897Z" fill="white"/>
<path d="M14.6103 17.8218C15.9892 10.795 22.436 0.564619 33.9296 3.85012C36.6314 4.62247 39.8165 6.10903 42.1505 7.50957C46.3558 10.0329 45.9211 13.3551 46.1919 17.2659C46.311 18.986 49.8133 18.9967 49.6934 17.2659C49.4567 13.8479 50.5496 8.78766 46.6657 6.31894C44.1812 4.73971 40.5773 3.17842 37.8699 1.80913C36.223 0.976228 34.8107 0.45283 32.8421 0.294943C20.1897 -0.719794 12.8448 8.89813 11.2339 17.1075C10.902 18.7991 14.2754 19.5286 14.6103 17.8218Z" fill="white"/>
<path d="M15.7165 32.0921C22.3388 32.1031 28.9611 32.1142 35.5835 32.1252C40.6031 32.1335 49.4897 31.0476 53.9731 33.3538C59.8497 36.3765 58.0895 46.4635 58.0742 51.0563C58.0624 54.6292 59.7642 56.8558 54.0052 57.5233C51.1866 57.85 47.9264 57.4756 45.0938 57.4533C39.1528 57.4067 33.2119 57.36 27.271 57.3134C23.8054 57.2861 20.3399 57.2589 16.8743 57.2317C14.5644 57.2136 8.36156 58.0376 6.47771 57.1501C2.22544 55.1467 4.10216 48.246 4.10063 44.7443C4.09946 42.066 3.65382 38.3107 5.2814 35.8385C8.04633 31.6389 14.4367 31.8524 19.6093 31.9273C21.8634 31.96 21.8634 29.2731 19.6093 29.2404C12.0504 29.1309 6.24528 28.8341 2.25792 34.4824C-1.54732 39.8727 0.577208 48.5442 0.71361 54.4276C0.850403 60.3278 1.94167 59.8014 9.44818 59.8603C21.33 59.9536 33.2119 60.0469 45.0938 60.1403C49.6446 60.176 59.1522 62.1078 61.323 57.8881C62.6709 55.268 61.5941 50.5065 61.5681 47.7047C61.5368 44.328 62.056 40.2789 61.1635 36.9554C59.8532 32.0758 54.6254 30.0263 48.515 29.5504C37.7897 28.7151 26.4963 29.4231 15.7165 29.4052C13.4632 29.4015 13.4599 32.0884 15.7165 32.0921Z" fill="white"/>
</svg>
