<svg width="59" height="40" viewBox="0 0 59 40" fill="none" xmlns="http://www.w3.org/2000/svg">
<path d="M59.0001 19.7643C59.0001 30.4916 51.1286 39.259 41.2891 39.259C31.5434 39.259 23.5781 30.4916 23.5781 19.7643C23.5781 9.03701 31.4497 0.269531 41.1954 0.269531C51.1286 0.269531 59.0001 9.03701 59.0001 19.7643Z" fill="#FFB600"/>
<path d="M41.2891 0.269531C51.0349 0.269531 59.0001 9.03701 59.0001 19.7643C59.0001 30.4916 51.1286 39.259 41.2891 39.259C31.5434 39.259 23.5781 30.4916 23.5781 19.7643" fill="#F7981D"/>
<path d="M41.2744 0.269531C51.0201 0.269531 58.9854 9.03701 58.9854 19.7643C58.9854 30.4916 51.1139 39.259 41.2744 39.259" fill="#FF8500"/>
<path d="M17.5236 0.269531C7.87155 0.372678 0 9.03701 0 19.7643C0 30.4916 7.87155 39.259 17.711 39.259C22.3027 39.259 26.4259 37.2992 29.612 34.2048C30.268 33.586 30.8302 32.8639 31.3925 32.1419H27.7378C27.2693 31.523 26.8007 30.801 26.4259 30.1821H32.7044C33.0792 29.5632 33.4541 28.8412 33.7352 28.1192H25.3951C25.114 27.5003 24.8329 26.7783 24.6454 26.0562H34.3912C34.9534 24.0964 35.3282 22.0335 35.3282 19.8674C35.3282 18.4234 35.1408 17.0825 34.9534 15.7416H24.0832C24.1769 15.0195 24.3643 14.4006 24.5517 13.6786H34.2974C34.11 12.9566 33.8289 12.2346 33.5478 11.6157H25.3014C25.5825 10.8937 25.9574 10.2748 26.3322 9.55275H32.6107C32.2359 8.83072 31.7673 8.10869 31.2051 7.48981H27.7378C28.3001 6.76778 28.8623 6.1489 29.5183 5.53002C26.4259 2.33247 22.209 0.475825 17.6173 0.475825C17.6173 0.269531 17.6173 0.269531 17.5236 0.269531Z" fill="#FF5050"/>
<path d="M0 19.7634C0 30.4908 7.87155 39.2583 17.711 39.2583C22.3027 39.2583 26.4259 37.2985 29.612 34.2041C30.268 33.5852 30.8302 32.8632 31.3925 32.1411H27.7378C27.2693 31.5222 26.8007 30.8002 26.4259 30.1813H32.7044C33.0792 29.5624 33.4541 28.8404 33.7352 28.1184H25.3951C25.114 27.4995 24.8329 26.7775 24.6454 26.0554H34.3912C34.9534 24.0956 35.3282 22.0327 35.3282 19.8666C35.3282 18.4225 35.1408 17.0816 34.9534 15.7407H24.0832C24.1769 15.0186 24.3643 14.3998 24.5517 13.6777H34.2974C34.11 12.9557 33.8289 12.2337 33.5478 11.6148H25.3014C25.5825 10.8927 25.9574 10.2739 26.3322 9.55183H32.6107C32.2359 8.8298 31.7673 8.10777 31.2051 7.48888H27.7378C28.3001 6.76685 28.8623 6.14796 29.5183 5.52908C26.4259 2.33151 22.209 0.474854 17.6173 0.474854H17.5236" fill="#E52836"/>
<path d="M17.6972 39.2583C22.2889 39.2583 26.4121 37.2985 29.5982 34.2041C30.2542 33.5852 30.8164 32.8632 31.3787 32.1411H27.724C27.2555 31.5222 26.7869 30.8002 26.4121 30.1813H32.6906C33.0654 29.5624 33.4403 28.8404 33.7214 28.1184H25.3813C25.1002 27.4995 24.8191 26.7775 24.6316 26.0554H34.3774C34.9396 24.0956 35.3145 22.0327 35.3145 19.8666C35.3145 18.4225 35.127 17.0816 34.9396 15.7407H24.0694C24.1631 15.0186 24.3505 14.3998 24.5379 13.6777H34.2837C34.0962 12.9557 33.8151 12.2337 33.534 11.6148H25.2876C25.5687 10.8927 25.9436 10.2739 26.3184 9.55183H32.5969C32.2221 8.8298 31.7535 8.10777 31.1913 7.48888H27.724C28.2863 6.76685 28.8485 6.14796 29.5045 5.52908C26.4121 2.33151 22.1952 0.474854 17.6035 0.474854H17.5098" fill="#CB2026"/>
<path d="M23.9805 24.7152L24.2616 22.9616C24.1679 22.9616 23.9805 23.0647 23.7931 23.0647C23.1371 23.0647 23.0434 22.6521 23.1371 22.4458L23.6994 18.8355H24.7302L25.0113 16.8755H24.0742L24.2616 15.6377H22.3874C22.3874 15.6377 21.2629 22.4458 21.2629 23.2711C21.2629 24.5089 21.9189 25.0247 22.7623 25.0247C23.3245 25.0247 23.7931 24.8184 23.9805 24.7152Z" fill="white"/>
<path d="M24.6304 21.4173C24.6304 24.3055 26.4108 25.0276 27.9102 25.0276C29.3158 25.0276 29.8781 24.7181 29.8781 24.7181L30.2529 22.7583C30.2529 22.7583 29.2221 23.274 28.285 23.274C26.2234 23.274 26.5983 21.6236 26.5983 21.6236H30.4403C30.4403 21.6236 30.7214 20.2826 30.7214 19.7669C30.7214 18.4259 30.0655 16.7755 28.0039 16.7755C26.036 16.5692 24.6304 18.8385 24.6304 21.4173ZM27.9102 18.4259C28.941 18.4259 28.7536 19.7669 28.7536 19.87H26.692C26.692 19.7669 26.8794 18.4259 27.9102 18.4259Z" fill="white"/>
<path d="M39.7941 24.7138L40.169 22.4446C40.169 22.4446 39.2319 22.9604 38.5759 22.9604C37.264 22.9604 36.7017 21.8258 36.7017 20.5881C36.7017 18.1127 37.8263 16.7718 39.1382 16.7718C40.0753 16.7718 40.8249 17.3907 40.8249 17.3907L41.1061 15.2247C41.1061 15.2247 39.9816 14.709 38.9508 14.709C36.7954 14.709 34.6401 16.7718 34.6401 20.6912C34.6401 23.2698 35.7646 25.0232 38.0137 25.0232C38.7633 25.0232 39.7941 24.7138 39.7941 24.7138Z" fill="white"/>
<path d="M13.6886 16.5654C12.3767 16.5654 11.4396 16.978 11.4396 16.978L11.1585 18.7315C11.1585 18.7315 12.0019 18.3189 13.2201 18.3189C13.876 18.3189 14.4383 18.4221 14.4383 19.041C14.4383 19.4536 14.3446 19.5567 14.3446 19.5567C14.3446 19.5567 13.7823 19.5567 13.5012 19.5567C11.9082 19.5567 10.1277 20.2788 10.1277 22.6512C10.1277 24.5078 11.2522 24.9204 11.9082 24.9204C13.2201 24.9204 13.7823 23.9921 13.876 23.9921L13.7823 24.8173H15.4691L16.2188 19.1441C16.2188 16.6686 14.3446 16.5654 13.6886 16.5654ZM14.0635 21.2071C14.0635 21.5165 13.876 23.1669 12.7515 23.1669C12.1893 23.1669 12.0019 22.6512 12.0019 22.3417C12.0019 21.826 12.283 21.1039 13.6886 21.1039C13.9697 21.2071 14.0635 21.2071 14.0635 21.2071Z" fill="white"/>
<path d="M17.99 24.9194C18.4586 24.9194 20.8013 25.0226 20.8013 22.2376C20.8013 19.659 18.5523 20.1747 18.5523 19.1432C18.5523 18.6275 18.9271 18.4212 19.5831 18.4212C19.8642 18.4212 20.895 18.5244 20.895 18.5244L21.1761 16.6677C21.1761 16.6677 20.5202 16.4614 19.3957 16.4614C17.99 16.4614 16.5844 17.0803 16.5844 19.1432C16.5844 21.5156 18.9271 21.3093 18.9271 22.2376C18.9271 22.8565 18.2712 22.9596 17.8026 22.9596C16.9592 22.9596 16.1158 22.6502 16.1158 22.6502L15.8347 24.5068C15.9284 24.7131 16.397 24.9194 17.99 24.9194Z" fill="white"/>
<path d="M55.3256 14.9148L54.9507 17.6996C54.9507 17.6996 54.201 16.6682 53.1702 16.6682C51.4835 16.6682 49.9841 18.9373 49.9841 21.619C49.9841 23.2693 50.7338 25.0227 52.3269 25.0227C53.4514 25.0227 54.1073 24.1976 54.1073 24.1976L54.0136 24.9196H55.8878L57.2935 15.0179L55.3256 14.9148ZM54.4822 20.3813C54.4822 21.5159 54.0136 22.9599 52.9828 22.9599C52.3269 22.9599 51.952 22.341 51.952 21.3096C51.952 19.6593 52.608 18.6279 53.4514 18.6279C54.1073 18.6279 54.4822 19.1436 54.4822 20.3813Z" fill="white"/>
<path d="M3.48603 24.8176L4.61054 17.3911L4.79795 24.8176H6.10988L8.5463 17.3911L7.51551 24.8176H9.48339L10.9827 14.9155H7.89034L6.01617 21.0012L5.92246 14.9155H3.20491L1.70557 24.8176H3.48603Z" fill="white"/>
<path d="M32.4932 24.8163C33.0555 21.4125 33.1492 18.6276 34.4611 19.1433C34.6485 17.8024 34.9296 17.2867 35.1171 16.771C35.1171 16.771 35.0234 16.771 34.7422 16.771C33.8989 16.771 33.2429 18.0087 33.2429 18.0087L33.4303 16.8741H31.6499L30.4316 24.9194H32.4932V24.8163Z" fill="white"/>
<path d="M44.0976 16.5654C42.7856 16.5654 41.8485 16.978 41.8485 16.978L41.5674 18.7315C41.5674 18.7315 42.4108 18.3189 43.629 18.3189C44.285 18.3189 44.8472 18.4221 44.8472 19.041C44.8472 19.4536 44.7535 19.5567 44.7535 19.5567C44.7535 19.5567 44.1913 19.5567 43.9101 19.5567C42.3171 19.5567 40.5366 20.2788 40.5366 22.6512C40.5366 24.5078 41.6611 24.9204 42.3171 24.9204C43.629 24.9204 44.1913 23.9921 44.285 23.9921L44.1913 24.8173H45.878L46.6277 19.1441C46.7214 16.6686 44.7535 16.5654 44.0976 16.5654ZM44.5661 21.2071C44.5661 21.5165 44.3787 23.1669 43.2542 23.1669C42.6919 23.1669 42.5045 22.6512 42.5045 22.3417C42.5045 21.826 42.7856 21.1039 44.1913 21.1039C44.4724 21.2071 44.4724 21.2071 44.5661 21.2071Z" fill="white"/>
<path d="M48.211 24.8163C48.7733 21.4125 48.867 18.6276 50.1789 19.1433C50.3663 17.8024 50.6474 17.2867 50.8348 16.771C50.8348 16.771 50.7411 16.771 50.46 16.771C49.6166 16.771 48.9607 18.0087 48.9607 18.0087L49.1481 16.8741H47.3676L46.1494 24.9194H48.211V24.8163Z" fill="white"/>
<path d="M21.0762 23.2711C21.0762 24.5089 21.7321 25.0247 22.5755 25.0247C23.2315 25.0247 23.7937 24.8184 23.9812 24.7152L24.2623 22.9616C24.1686 22.9616 23.9812 23.0647 23.7937 23.0647C23.1378 23.0647 23.0441 22.6521 23.1378 22.4458L23.7 18.8355H24.7308L25.012 16.8755H24.0749L24.2623 15.6377" fill="#DCE5E5"/>
<path d="M25.5659 21.4173C25.5659 24.3055 26.4093 25.0276 27.9086 25.0276C29.3143 25.0276 29.8765 24.7181 29.8765 24.7181L30.2514 22.7583C30.2514 22.7583 29.2206 23.274 28.2835 23.274C26.2219 23.274 26.5967 21.6236 26.5967 21.6236H30.4388C30.4388 21.6236 30.7199 20.2826 30.7199 19.7669C30.7199 18.4259 30.0639 16.7755 28.0024 16.7755C26.0345 16.5692 25.5659 18.8385 25.5659 21.4173ZM27.9086 18.4259C28.9394 18.4259 29.1269 19.7669 29.1269 19.87H26.6904C26.6904 19.7669 26.8778 18.4259 27.9086 18.4259Z" fill="#DCE5E5"/>
<path d="M39.7926 24.7138L40.1674 22.4446C40.1674 22.4446 39.2303 22.9604 38.5744 22.9604C37.2624 22.9604 36.7002 21.8258 36.7002 20.5881C36.7002 18.1127 37.8247 16.7718 39.1366 16.7718C40.0737 16.7718 40.8234 17.3907 40.8234 17.3907L41.1045 15.2247C41.1045 15.2247 39.98 14.709 38.9492 14.709C36.7939 14.709 35.5757 16.7718 35.5757 20.6912C35.5757 23.2698 35.7631 25.0232 38.0121 25.0232C38.7618 25.0232 39.7926 24.7138 39.7926 24.7138Z" fill="#DCE5E5"/>
<path d="M11.1585 18.8348C11.1585 18.8348 12.0019 18.4222 13.2201 18.4222C13.876 18.4222 14.4383 18.5254 14.4383 19.1442C14.4383 19.5568 14.3446 19.6599 14.3446 19.6599C14.3446 19.6599 13.7823 19.6599 13.5012 19.6599C11.9082 19.6599 10.1277 20.3819 10.1277 22.7541C10.1277 24.6106 11.2522 25.0232 11.9082 25.0232C13.2201 25.0232 13.7823 24.0949 13.876 24.0949L13.7823 24.9201H15.4691L16.2188 19.2473C16.2188 16.8751 14.3446 16.772 13.5949 16.772L11.1585 18.8348ZM15.0005 21.207C15.0005 21.5164 13.876 23.1667 12.7515 23.1667C12.1893 23.1667 12.0019 22.651 12.0019 22.3415C12.0019 21.8258 12.283 21.1039 13.6886 21.1039C13.9697 21.207 15.0005 21.207 15.0005 21.207Z" fill="#DCE5E5"/>
<path d="M15.9277 24.7131C15.9277 24.7131 16.49 24.9194 18.083 24.9194C18.5516 24.9194 20.8943 25.0226 20.8943 22.2376C20.8943 19.659 18.6453 20.1747 18.6453 19.1432C18.6453 18.6275 19.0201 18.4212 19.6761 18.4212C19.9572 18.4212 20.988 18.5244 20.988 18.5244L21.2692 16.6677C21.2692 16.6677 20.6132 16.4614 19.4887 16.4614C18.083 16.4614 17.6145 17.0803 17.6145 19.1432C17.6145 21.5156 19.0201 21.3093 19.0201 22.2376C19.0201 22.8565 18.3642 22.9596 17.8956 22.9596" fill="#DCE5E5"/>
<path d="M54.9465 17.7006C54.9465 17.7006 54.1968 16.6691 53.166 16.6691C51.4792 16.6691 50.917 18.9383 50.917 21.6201C50.917 23.2705 50.7295 25.0239 52.3226 25.0239C53.4471 25.0239 54.1031 24.1988 54.1031 24.1988L54.0094 24.9208H55.8835L57.2892 15.0188L54.9465 17.7006ZM54.8527 20.3824C54.8527 21.517 54.0094 22.961 52.9786 22.961C52.3226 22.961 51.9478 22.3421 51.9478 21.3107C51.9478 19.6604 52.6037 18.6289 53.4471 18.6289C54.1031 18.6289 54.8527 19.1446 54.8527 20.3824Z" fill="#DCE5E5"/>
<path d="M3.48603 24.8176L4.61054 17.3911L4.79795 24.8176H6.10988L8.5463 17.3911L7.51551 24.8176H9.48339L10.9827 14.9155H8.64001L6.01617 21.0012L5.92246 14.9155H4.89166L1.70557 24.8176H3.48603Z" fill="#DCE5E5"/>
<path d="M30.5234 24.8186H32.4913C33.0536 21.4147 33.1473 18.6296 34.4592 19.1454C34.6466 17.8044 34.9278 17.2887 35.1152 16.7729C35.1152 16.7729 35.0215 16.7729 34.7403 16.7729C33.897 16.7729 33.241 18.0107 33.241 18.0107L33.4284 16.8761" fill="#DCE5E5"/>
<path d="M41.5645 18.8348C41.5645 18.8348 42.4079 18.4222 43.6261 18.4222C44.282 18.4222 44.8443 18.5254 44.8443 19.1442C44.8443 19.5568 44.7506 19.6599 44.7506 19.6599C44.7506 19.6599 44.1883 19.6599 43.9072 19.6599C42.3142 19.6599 40.5337 20.3819 40.5337 22.7541C40.5337 24.6106 41.6582 25.0232 42.3142 25.0232C43.6261 25.0232 44.1883 24.0949 44.282 24.0949L44.1883 24.9201H45.8751L46.6248 19.2473C46.6248 16.8751 44.7506 16.772 44.0009 16.772L41.5645 18.8348ZM45.4065 21.207C45.4065 21.5164 44.282 23.1667 43.1575 23.1667C42.5953 23.1667 42.4079 22.651 42.4079 22.3415C42.4079 21.8258 42.689 21.1039 44.0946 21.1039C44.4695 21.207 45.4065 21.207 45.4065 21.207Z" fill="#DCE5E5"/>
<path d="M46.2412 24.8186H48.2091C48.7714 21.4147 48.8651 18.6296 50.177 19.1454C50.3644 17.8044 50.6455 17.2887 50.8329 16.7729C50.8329 16.7729 50.7392 16.7729 50.4581 16.7729C49.6147 16.7729 48.9588 18.0107 48.9588 18.0107L49.1462 16.8761" fill="#DCE5E5"/>
</svg>
