<svg width="59" height="40" viewBox="0 0 59 40" fill="none" xmlns="http://www.w3.org/2000/svg">
<path d="M53.381 39.259H5.61905C2.52857 39.259 0 36.9197 0 34.0604V5.46813C0 2.6089 2.52857 0.269531 5.61905 0.269531H53.381C56.4714 0.269531 59 2.6089 59 5.46813V34.0604C59 36.9197 56.4714 39.259 53.381 39.259Z" fill="#ECEFF1"/>
<path d="M31.7478 14.6957L28.3763 21.0639H28.0954V13.2661H23.8811V26.2625H27.674C28.6573 26.2625 29.6406 25.7426 29.9216 24.8329L33.293 18.4646H33.7144V26.2625H37.9287V13.2661H34.1359C33.1525 13.2661 32.1692 13.786 31.7478 14.6957Z" fill="#4CAF50"/>
<path d="M14.6232 14.9556L12.7971 20.934H12.5161L10.6899 14.9556C10.409 13.9159 9.56611 13.2661 8.44231 13.2661H4.22803V26.2625H8.44231V18.5946H8.72326L11.1113 26.2625H14.0613L16.4494 18.5946H16.8709V26.2625H21.0851V13.2661H16.8709C15.7471 13.2661 14.9042 13.9159 14.6232 14.9556Z" fill="#4CAF50"/>
<path d="M49.7141 13.2688H39.3188C40.0212 16.2579 42.9712 18.4673 46.6236 18.4673H54.7712C54.7712 18.2074 54.9117 17.9474 54.9117 17.5575C54.7712 15.2182 52.5236 13.2688 49.7141 13.2688Z" fill="#0091EA"/>
<path d="M40.7227 19.7629V26.261H44.9369V22.3622H49.8536C51.8203 22.3622 53.506 21.3225 54.2084 19.7629H40.7227Z" fill="#4CAF50"/>
</svg>
