<svg width="79" height="97" viewBox="0 0 79 97" fill="none" xmlns="http://www.w3.org/2000/svg">
<path d="M61.8442 37.6578C61.7077 31.5957 73.8634 29.4404 74 39.9479L73.8634 60.8282C73.7268 69.4497 68.9465 86.2886 63.7564 92.6201H36.5767C32.7524 85.6151 28.7915 76.9935 23.738 71.0662C19.9137 66.6208 15.4065 62.7141 9.39693 60.2893C2.70443 57.4604 3.93366 51.3983 11.1725 50.1859C17.4552 49.1082 22.2356 51.2636 26.1965 54.7661L25.7867 12.6014C25.6501 2.90218 38.0791 2.22862 38.0791 12.0626L38.4888 31.121M38.4888 31.121V49.5124M38.4888 31.121C38.4888 23.7119 50.2348 22.3006 49.9616 31.7305M49.9616 31.7305C50.0982 24.8602 61.7077 24.7255 61.7077 34.29V51.6678M49.9616 31.7305V50.8595" stroke="white" stroke-opacity="0.21" stroke-width="8.16605" stroke-linecap="round" stroke-linejoin="round"/>
</svg>
