<svg width="62" height="21" viewBox="0 0 62 21" fill="none" xmlns="http://www.w3.org/2000/svg">
<path d="M47.9285 5.48218H44.5776C44.3805 5.48218 44.1834 5.73068 44.0849 5.97918L42.7051 16.9131C42.7051 17.1616 42.8036 17.2859 43.0007 17.2859H44.7747C44.9719 17.2859 45.0704 17.1616 45.0704 16.9131L45.4646 13.8069C45.4646 13.5584 45.6617 13.3099 45.9574 13.3099H47.0415C49.3083 13.3099 50.5895 11.9432 50.8852 9.20967C51.0823 8.09142 50.8852 7.09742 50.491 6.47617C49.8996 5.85493 49.0126 5.48218 47.9285 5.48218ZM48.3227 9.58241C48.1256 11.0734 47.2386 11.0734 46.3516 11.0734H45.7603L46.1545 8.21567C46.1545 8.09142 46.2531 7.96717 46.4502 7.96717H46.6473C47.2386 7.96717 47.83 7.96717 48.1256 8.46417C48.3228 8.58842 48.3227 8.96117 48.3227 9.58241Z" fill="#139AD6"/>
<path d="M23.8218 5.48218H20.4709C20.2738 5.48218 20.0767 5.73068 19.9782 5.97918L18.5984 16.9131C18.5984 17.1616 18.6969 17.2859 18.8941 17.2859H20.4709C20.6681 17.2859 20.8652 17.0374 20.9637 16.7889L21.3579 13.8069C21.3579 13.5584 21.5551 13.3099 21.8507 13.3099H22.9348C25.2016 13.3099 26.4828 11.9432 26.7785 9.20967C26.9756 8.09142 26.7785 7.09742 26.3843 6.47617C25.7929 5.85493 25.0045 5.48218 23.8218 5.48218ZM24.2161 9.58241C24.0189 11.0734 23.1319 11.0734 22.2449 11.0734H21.7522L22.1464 8.21567C22.1464 8.09142 22.2449 7.96717 22.4421 7.96717H22.6392C23.2305 7.96717 23.8218 7.96717 24.1175 8.46417C24.2161 8.58842 24.3146 8.96117 24.2161 9.58241Z" fill="#263B80"/>
<path d="M33.9591 9.45357H32.3822C32.2837 9.45357 32.0866 9.57782 32.0866 9.70207L31.988 10.3233L31.8894 10.0748C31.4952 9.45357 30.8053 9.20508 30.0169 9.20508C28.2429 9.20508 26.666 10.9446 26.3703 13.3053C26.1732 14.5478 26.4689 15.666 26.9617 16.4115C27.4544 17.157 28.1443 17.4055 29.0313 17.4055C30.5097 17.4055 31.2981 16.2873 31.2981 16.2873L31.1996 16.9085C31.1996 17.157 31.2981 17.2813 31.4952 17.2813H32.9736C33.1707 17.2813 33.3678 17.0328 33.4663 16.7843L34.3533 9.82632C34.2548 9.70207 34.0577 9.45357 33.9591 9.45357ZM31.6923 13.4295C31.4952 14.5478 30.8053 15.4175 29.8198 15.4175C29.327 15.4175 28.9328 15.169 28.7357 14.9205C28.5386 14.5478 28.44 14.0508 28.44 13.4295C28.5386 12.3113 29.327 11.4416 30.214 11.4416C30.7068 11.4416 31.0024 11.6901 31.2981 11.9386C31.5938 12.3113 31.6923 12.9325 31.6923 13.4295Z" fill="#263B80"/>
<path d="M57.9679 9.45357H56.391C56.2925 9.45357 56.0953 9.57782 56.0953 9.70207L55.9968 10.3233L55.8982 10.0748C55.504 9.45357 54.8141 9.20508 54.0257 9.20508C52.2517 9.20508 50.6748 10.9446 50.3791 13.3053C50.182 14.5478 50.4777 15.666 50.9705 16.4115C51.4632 17.157 52.1531 17.4055 53.0401 17.4055C54.5185 17.4055 55.3069 16.2873 55.3069 16.2873L55.2083 16.9085C55.2083 17.157 55.3069 17.2813 55.504 17.2813H56.9823C57.1795 17.2813 57.3766 17.0328 57.4751 16.7843L58.3621 9.82632C58.2636 9.70207 58.165 9.45357 57.9679 9.45357ZM55.7011 13.4295C55.504 14.5478 54.8141 15.4175 53.8286 15.4175C53.3358 15.4175 52.9416 15.169 52.7445 14.9205C52.5473 14.5478 52.4488 14.0508 52.4488 13.4295C52.5473 12.3113 53.3358 11.4416 54.2228 11.4416C54.7156 11.4416 55.0112 11.6901 55.3069 11.9386C55.7011 12.3113 55.7997 12.9325 55.7011 13.4295Z" fill="#139AD6"/>
<path d="M42.519 9.45239H40.8435C40.6464 9.45239 40.5479 9.57665 40.4493 9.7009L38.2811 13.9255L37.2955 9.94941C37.197 9.7009 37.0984 9.57665 36.8027 9.57665H35.2258C35.0287 9.57665 34.9302 9.82515 34.9302 10.0737L36.7042 16.6591L35.0287 19.6412C34.9302 19.8897 35.0287 20.2625 35.2258 20.2625H36.8027C36.9999 20.2625 37.0984 20.1382 37.197 20.0139L42.6175 10.1979C42.9132 9.82515 42.7161 9.45239 42.519 9.45239Z" fill="#263B80"/>
<path d="M59.8319 5.85461L58.4521 17.0369C58.4521 17.2854 58.5507 17.4097 58.7478 17.4097H60.1276C60.3247 17.4097 60.5218 17.1612 60.6204 16.9127L62.0001 5.97886C62.0001 5.73037 61.9016 5.60612 61.7045 5.60612H60.1276C60.029 5.48187 59.9305 5.60612 59.8319 5.85461Z" fill="#139AD6"/>
<path d="M11.3339 1.75885C10.644 0.764832 9.36277 0.267822 7.58877 0.267822H2.661C2.36533 0.267822 2.06966 0.640579 1.97111 1.01334L0 17.2904C0 17.6631 0.197111 17.9116 0.394222 17.9116H3.44944L4.23789 11.8233V12.0718C4.33644 11.699 4.63211 11.3263 4.92777 11.3263H6.40611C9.26421 11.3263 11.4324 9.83523 12.1223 5.73491C12.1223 5.61066 12.1223 5.48641 12.1223 5.36216C12.0238 5.36216 12.0238 5.36216 12.1223 5.36216C12.2209 3.74688 12.0238 2.75287 11.3339 1.75885Z" fill="#263B80"/>
<path d="M12.0148 5.3562C12.0148 5.48046 12.0148 5.60471 12.0148 5.72897C11.3249 9.95372 9.15668 11.3206 6.29856 11.3206H4.82022C4.52456 11.3206 4.22889 11.6933 4.13033 12.0661L3.14478 19.6458C3.14478 19.8943 3.24333 20.1428 3.539 20.1428H6.10145C6.39711 20.1428 6.69278 19.8943 6.69278 19.5215V19.3973L7.18556 15.5453V15.2968C7.18556 14.924 7.48123 14.6755 7.7769 14.6755H8.17112C10.635 14.6755 12.6061 13.4329 13.0989 9.70521C13.296 8.21412 13.1975 6.84729 12.6061 5.97749C12.5076 5.72897 12.3105 5.48046 12.0148 5.3562Z" fill="#139AD6"/>
<path d="M11.3294 4.98824C11.2309 4.98824 11.1323 4.86399 11.0338 4.86399C10.9352 4.86399 10.8366 4.86399 10.7381 4.73973C10.3439 4.61548 9.94964 4.61548 9.45686 4.61548H5.61318C5.51463 4.61548 5.41607 4.61548 5.31751 4.73973C5.1204 4.86399 5.02185 5.1125 5.02185 5.36101L4.2334 11.8223V12.0708C4.33195 11.698 4.62762 11.3253 4.92329 11.3253H6.40163C9.25975 11.3253 11.428 9.8342 12.1179 5.73378C12.1179 5.60952 12.1179 5.48527 12.2164 5.36101C12.0193 5.23676 11.9208 5.1125 11.7237 5.1125C11.428 4.98824 11.428 4.98824 11.3294 4.98824Z" fill="#232C65"/>
</svg>
