<svg width="37" height="38" viewBox="0 0 37 38" fill="none" xmlns="http://www.w3.org/2000/svg">
<path fill-rule="evenodd" clip-rule="evenodd" d="M7.82628 14.3804L2.41324 5.20414C2.08407 5.5028 1.7634 5.85809 1.48109 6.25779C0.180958 8.06235 -0.516358 10.844 0.454683 14.4289C0.674332 15.2162 1.13621 16.5161 1.63748 17.7596C2.11566 18.9586 2.61702 20.097 2.95409 20.6785C4.37962 23.1532 6.46341 25.7975 8.78213 28.1915C11.1088 30.5895 13.6707 32.7292 16.0753 34.2027C16.6398 34.55 17.7442 35.0667 18.9038 35.5632C20.1097 36.0719 21.371 36.5564 22.1388 36.7743C25.6169 37.7795 28.3116 37.0569 30.0668 35.7207C30.4977 35.3936 30.8657 35.0303 31.1791 34.6467L22.1934 29.1683C21.1907 30.4159 20.6816 30.767 19.1385 29.8305C16.4122 28.1752 14.2268 26.5038 12.323 24.5418C10.4193 22.5838 8.79784 20.331 7.19163 17.5253C6.28342 15.9308 6.62778 15.4099 7.82628 14.3804ZM23.2198 16.722V13.4116L20.9797 16.722H23.2198ZM23.2198 19.3138V17.5578H20.1176V16.722L23.3847 11.9542H24.0971V16.722H25.0687V17.5578H24.0971V19.3138H23.2198ZM19.4756 18.4499V19.3138H14.744C14.7361 19.0958 14.7751 18.8858 14.8456 18.684C14.9709 18.353 15.1669 18.026 15.4333 17.7071C15.6993 17.3882 16.0832 17.0167 16.5772 16.597C17.3524 15.9389 17.8774 15.4221 18.1518 15.0386C18.4256 14.655 18.5667 14.2917 18.5667 13.9486C18.5667 13.5893 18.4414 13.2906 18.1907 13.0443C17.94 12.7979 17.6188 12.6728 17.2111 12.6728C16.7882 12.6728 16.4518 12.8061 16.2005 13.0644C15.9425 13.3229 15.8172 13.6821 15.8092 14.1424L14.9161 14.0495C14.9788 13.3592 15.2057 12.8302 15.6133 12.467C16.0125 12.1036 16.5533 11.9219 17.2348 11.9219C17.9163 11.9219 18.465 12.1198 18.8641 12.5113C19.2638 12.9029 19.4597 13.3915 19.4597 13.9688C19.4597 14.2635 19.4049 14.5541 19.2875 14.8368C19.1695 15.1234 18.9742 15.4221 18.7077 15.737C18.4333 16.052 17.9788 16.4839 17.3522 17.0329C16.8277 17.4891 16.4906 17.7959 16.3336 17.9614C16.1852 18.123 16.0677 18.2843 15.9656 18.45H19.4756V18.4499ZM12.8482 8.51053C12.707 8.6074 12.5191 8.5629 12.4248 8.41764C12.331 8.2683 12.3699 8.07049 12.5111 7.97353C13.4511 7.34373 14.4855 6.84716 15.5897 6.51204C16.6551 6.18516 17.7831 6.01149 18.9427 6.01149C22.2093 6.01149 25.1625 7.37204 27.2937 9.57621C29.4324 11.7766 30.7563 14.8205 30.7563 18.1834C30.7563 20.0122 30.3645 21.7481 29.6594 23.3065C28.9937 24.78 28.0532 26.0921 26.902 27.174C28.1474 27.9734 29.0955 28.5023 30.4272 29.2572C30.6151 29.3622 30.8189 29.4671 30.9991 29.5761C31.1475 29.6528 31.2966 29.7336 31.4139 29.8102C32.0487 30.2179 32.354 30.9002 32.354 31.6875C32.362 32.3335 32.166 33.052 31.7821 33.7504C31.7115 33.8795 31.6415 34.0048 31.555 34.1339L22.5852 28.6718L23.0555 28.0824C23.917 27.0084 24.4184 26.4392 24.8413 26.2778C25.202 26.1365 25.6012 26.3302 26.2906 26.7825L26.3532 26.8228C27.5049 25.7772 28.4449 24.4893 29.0954 23.04C29.7609 21.5624 30.137 19.9193 30.137 18.1834C30.137 14.998 28.8835 12.1156 26.8552 10.0285C24.834 7.94124 22.0371 6.64935 18.9427 6.64935C17.8384 6.64935 16.7725 6.81478 15.7618 7.12167C14.7203 7.44069 13.7414 7.91302 12.8482 8.51053ZM2.90671 4.80453L8.31245 13.9768L8.89174 13.4844C9.93394 12.5921 10.4822 12.0795 10.647 11.6433C10.7796 11.2679 10.5916 10.8642 10.153 10.1536C9.15028 8.52672 8.59424 7.47714 7.74852 5.8864L7.44252 5.29296L7.42733 5.26067C8.89192 3.95674 10.5844 2.89903 12.4176 2.15209C14.4071 1.34067 16.5772 0.892579 18.8565 0.892579C23.6902 0.892579 28.0769 2.91513 31.2499 6.18524C34.4222 9.45519 36.3807 13.9728 36.3807 18.9627C36.3807 19.8186 36.3259 20.6624 36.2164 21.4859C36.099 22.3256 35.9268 23.1493 35.7071 23.9486C35.6603 24.1181 35.7539 24.2958 35.9188 24.3402C36.0831 24.3886 36.2553 24.2917 36.3028 24.1221C36.5298 23.2946 36.7099 22.4428 36.8273 21.5707C36.9446 20.7147 37 19.8428 37 18.9627C37 13.7951 34.971 9.12016 31.6885 5.733C28.4062 2.34991 23.8624 0.254639 18.8565 0.254639C16.4988 0.254639 14.2502 0.715024 12.19 1.55458C10.3258 2.31762 8.61004 3.38754 7.10605 4.70757C6.69834 4.16668 6.08754 3.9003 5.39031 3.89614C4.76364 3.89216 4.06641 4.09405 3.39287 4.4856C3.2279 4.58239 3.06361 4.68731 2.90671 4.80453Z" fill="white"/>
</svg>
