<svg width="64" height="21" viewBox="0 0 64 21" fill="none" xmlns="http://www.w3.org/2000/svg">
<path d="M25.8063 0.642334L22.5142 20.4597H27.7056L30.9978 0.642334H25.8063Z" fill="#0072FF"/>
<path d="M55.7696 0.644043C54.5034 0.644043 53.6171 1.02032 53.1106 2.27457L45.3867 20.5867H50.8314C50.8314 20.5867 51.7177 18.0782 51.971 17.5765C52.6041 17.5765 57.7955 17.5765 58.5553 17.5765C58.6819 18.329 59.1884 20.5867 59.1884 20.5867H63.9999L59.8215 0.644043H55.7696ZM53.3638 13.4374C53.7437 12.3086 55.3897 7.91871 55.3897 7.91871C55.3897 7.91871 55.7696 6.78988 56.0228 6.03733L56.4027 7.79329C56.4027 7.79329 57.4157 12.5595 57.6689 13.5629H53.3638V13.4374Z" fill="#0072FF"/>
<path d="M41.361 8.6713C39.5883 7.79332 38.4487 7.1662 38.4487 6.1628C38.4487 5.28482 39.335 4.40685 41.361 4.40685C43.007 4.40685 44.2732 4.78312 45.2862 5.1594L45.7927 5.41025L46.5524 1.1458C45.5394 0.769523 43.8934 0.267822 41.8674 0.267822C36.8026 0.267822 33.1306 3.02717 33.1306 6.78992C33.1306 9.6747 35.663 11.3052 37.689 12.1832C39.7149 13.1866 40.348 13.8137 40.348 14.6917C40.348 16.0714 38.7019 16.5731 37.1825 16.5731C35.1565 16.5731 34.017 16.3222 32.2443 15.5697L31.6112 15.1934L30.8514 19.5833C32.1176 20.085 34.2702 20.5867 36.676 20.5867C42.1207 20.5867 45.6661 17.9527 45.6661 13.8137C45.7927 11.8069 44.3998 10.051 41.361 8.6713Z" fill="#0072FF"/>
<path d="M18.2334 0.642334L13.1686 14.1884L12.6621 11.429L10.8894 2.27288C10.6361 1.01861 9.62317 0.642334 8.48359 0.642334H0.253242C0.126621 0.642334 0.126621 0.767761 0 0.767761C0 0.893187 4.81133e-07 1.01861 0.126621 1.01861C1.39283 1.39489 2.53241 1.77117 3.54538 2.27288C4.68497 2.77458 5.44469 3.778 5.82455 4.90683L10.003 20.4597H15.4477L23.5515 0.642334H18.2334Z" fill="#0072FF"/>
</svg>
