<svg width="105" height="91" viewBox="0 0 105 91" fill="none" xmlns="http://www.w3.org/2000/svg">
<path fill-rule="evenodd" clip-rule="evenodd" d="M52.9197 12.2695C55.4671 12.2695 57.7718 13.1762 59.4445 14.6368C61.1109 16.1036 62.1449 18.1303 62.1449 20.3581C62.1449 22.5977 61.1109 24.6181 59.4445 26.0789C57.7718 27.5456 55.46 28.4524 52.9197 28.4524C50.3723 28.4524 48.0675 27.5456 46.3948 26.0789C44.7221 24.6123 43.688 22.5917 43.688 20.3581C43.688 18.1303 44.7223 16.1097 46.3948 14.643C48.0611 13.1762 50.3723 12.2695 52.9197 12.2695ZM58.2364 15.696C56.8761 14.5031 54.9953 13.7666 52.9197 13.7666C50.8441 13.7666 48.9632 14.5031 47.603 15.696C46.2355 16.8888 45.3952 18.5382 45.3952 20.3581C45.3952 22.1838 46.2357 23.8329 47.5959 25.026C48.957 26.2188 50.8379 26.9554 52.9199 26.9554C54.9955 26.9554 56.8764 26.2188 58.2366 25.026C59.5977 23.8329 60.4373 22.1838 60.4373 20.3581C60.4368 18.5382 59.5975 16.8888 58.2364 15.696ZM28.1397 71.3964C27.8825 71.3293 27.6054 71.3111 27.3273 71.3353C27.0429 71.3657 26.7793 71.439 26.5503 71.5545C26.3004 71.6702 26.0922 71.8283 25.9254 72.0172C25.7516 72.2057 25.6202 72.4249 25.5432 72.65C25.4743 72.8752 25.4462 73.1188 25.4809 73.3684C25.509 73.6117 25.5994 73.8431 25.7243 74.0438C25.8628 74.263 26.0431 74.4455 26.2515 74.5978C26.467 74.7437 26.717 74.8594 26.9804 74.9265C27.2367 74.9875 27.5147 75.0117 27.7928 74.9811C28.0772 74.9569 28.3408 74.8776 28.5698 74.7682C28.8124 74.6467 29.0281 74.4883 29.1948 74.2994C29.3685 74.1171 29.4926 73.9039 29.5696 73.6728C29.6456 73.4534 29.6666 73.2102 29.6385 72.9605C29.604 72.7049 29.5207 72.4737 29.3959 72.2728C29.2573 72.0598 29.077 71.8711 28.8615 71.7252C28.6531 71.5727 28.4031 71.4632 28.1397 71.3964ZM36.7817 71.7736C46.3676 68.5601 51.2125 69.9295 56.3552 71.3779C59.6662 72.3154 63.1093 73.2829 68.1345 72.9543C72.0848 72.6987 81.1354 68.9678 88.5692 64.8173C94.7191 61.3846 99.71 57.7511 99.5505 55.7732L99.5224 55.5785C99.3704 54.6168 98.6758 54.0446 97.7737 53.7342C96.7321 53.3811 95.4137 53.3265 94.2336 53.3996C93.9213 53.424 93.6223 53.4482 93.3518 53.4848C90.5896 53.8197 86.9175 54.8482 83.3984 56.1749C80.0114 57.4466 76.7765 58.9867 74.6664 60.435C73.9864 61.7495 72.4035 62.4374 70.3486 62.7236C65.483 63.3931 57.8339 61.5792 54.8907 60.8855L54.2171 60.7274C53.7658 60.6237 53.4953 60.2098 53.6138 59.8141C53.7316 59.4184 54.2034 59.1813 54.6545 59.2847L55.3281 59.4429C58.1809 60.1185 65.5942 61.8714 70.0923 61.2503C72.1814 60.9581 73.5836 60.1001 73.2711 58.2194L73.2366 58.0489C72.5774 55.1274 67.1075 53.1496 60.9575 51.9992C54.6481 50.8187 47.6861 50.5509 44.243 51.0133L43.7638 51.0923C41.3141 51.5124 38.1417 52.6748 35.0392 54.0014L34.9769 54.0318C32.0608 55.2795 29.2498 56.6551 27.1116 57.7262C28.077 58.5356 29.0416 59.5459 29.9788 60.6779C31.7077 62.7776 33.3658 65.3096 34.7269 67.7197C35.5249 69.1321 36.2193 70.5199 36.7817 71.7736ZM27.1326 69.8503C27.6398 69.8016 28.1397 69.8443 28.6042 69.9599C29.0834 70.0816 29.5344 70.2886 29.9236 70.5562C30.3048 70.8239 30.6319 71.1648 30.8809 71.5483C31.1101 71.9195 31.2767 72.3394 31.3327 72.7837V72.8082C31.3879 73.2463 31.3391 73.6846 31.2005 74.0861C31.0619 74.5064 30.8328 74.8956 30.5276 75.2305C30.2217 75.5713 29.8332 75.8573 29.3959 76.0703C28.9656 76.2772 28.4867 76.4171 27.9868 76.466C27.4805 76.5146 26.9806 76.4782 26.5152 76.3625C26.0299 76.2408 25.5852 76.0337 25.1967 75.7599C24.8082 75.4921 24.4823 75.1512 24.2387 74.7678C24.0032 74.3905 23.8429 73.9768 23.7877 73.5323C23.7324 73.088 23.7804 72.6498 23.9125 72.2357C24.0584 71.8158 24.2876 71.4204 24.5928 71.0855C24.8979 70.7449 25.2871 70.4587 25.7245 70.2459C26.1472 70.0452 26.6263 69.9053 27.1326 69.8503ZM21.8719 57.3616L20.8376 57.7999C18.7476 58.6639 15.3189 60.0941 14.8471 60.9645C14.465 61.6768 14.8263 62.8149 15.2356 64.093L15.5896 65.225C16.4292 68.1827 16.4436 71.6213 16.4573 74.9751C16.471 78.4684 16.4917 81.8646 17.4634 84.3718L17.6093 84.7493C17.8248 84.737 18.2756 84.5059 18.8725 84.2017C19.9972 83.6296 22.246 82.7104 24.8142 81.6759C29.833 79.6368 36.0942 77.0992 36.5797 76.1559C36.8431 75.6444 35.3788 72.2301 33.1992 68.3838C31.8741 66.0407 30.2776 63.582 28.5976 61.5552C26.9731 59.5894 25.3004 58.0435 23.7943 57.447C23.0935 57.1668 22.4334 57.1182 21.8719 57.3616ZM89.9235 7.63182C91.6793 7.63182 93.276 8.25887 94.4278 9.26899C95.5808 10.2795 96.2952 11.6791 96.2952 13.2252C96.2952 14.7647 95.5808 16.1647 94.4278 17.175C93.2687 18.1853 91.6793 18.8122 89.9235 18.8122C88.1602 18.8122 86.5708 18.1853 85.4117 17.175C84.2596 16.1587 83.5443 14.7647 83.5443 13.2252C83.5443 11.6791 84.2596 10.2855 85.4117 9.26899C86.5637 8.25887 88.1604 7.63182 89.9235 7.63182ZM74.8397 13.2252V13.7668L79.0536 14.3208L79.8793 17.0413L76.5476 19.3662L77.1652 20.3034L81.1356 18.9401L83.4057 20.9241L81.8435 24.4053L82.9131 24.9471L85.5646 22.0259L88.6674 22.756L89.3058 26.4442H90.5409L91.1732 22.756L94.2758 22.0259L96.9275 24.9471L97.9962 24.4053L96.4411 20.9241L98.7043 18.9401L102.674 20.3034L103.292 19.3662L99.9602 17.0413L100.793 14.3208L105 13.7668V12.6836L100.793 12.1234L99.9602 9.40889L103.292 7.07803L102.674 6.14056L98.7043 7.51034L96.4411 5.51992L97.9962 2.03865L96.9275 1.49706L94.2758 4.41854L91.1732 3.68822L90.5409 0H89.3058L88.6674 3.68822L85.5646 4.41854L82.9131 1.49706L81.8435 2.03865L83.4057 5.51992L81.1356 7.51034L77.1652 6.14056L76.5476 7.07803L79.8793 9.40308L79.0536 12.1234L74.8397 12.6836V13.2252ZM93.5956 9.99931C92.651 9.17772 91.3533 8.66656 89.9235 8.66656C88.4864 8.66656 87.1812 9.17772 86.2448 9.99931C85.3078 10.8207 84.7246 11.9649 84.7246 13.225C84.7246 14.4787 85.3078 15.6227 86.2448 16.4445C87.1814 17.2659 88.4864 17.7774 89.9235 17.7774C91.3533 17.7774 92.6583 17.2659 93.5956 16.4445C94.5321 15.6229 95.1153 14.4787 95.1153 13.225C95.1153 11.9651 94.5321 10.8271 93.5956 9.99931ZM0.888397 87.0741C0.398774 87.0741 0 86.7275 0 86.2952C0 85.869 0.399002 85.516 0.888397 85.516H83.2249C83.7184 85.516 84.1142 85.869 84.1142 86.2952C84.1142 86.7273 83.7186 87.0741 83.2249 87.0741H0.888397ZM29.2708 90.4885C28.799 90.4885 28.4168 90.1539 28.4168 89.74C28.4168 89.3263 28.799 88.9915 29.2708 88.9915H87.6884C88.1602 88.9915 88.5423 89.3263 88.5423 89.74C88.5423 90.1539 88.1602 90.4885 87.6884 90.4885H29.2708ZM68.8012 47.9951C69.2386 48.135 69.4678 48.5671 69.3084 48.9504C69.1418 49.3401 68.6556 49.5408 68.2116 49.3947C68.1626 49.3825 51.351 43.9294 45.8323 45.1347C40.1687 46.3762 27.6396 52.5414 27.6051 52.5596C27.195 52.7605 26.675 52.6326 26.4458 52.2736C26.223 51.9145 26.3689 51.4582 26.7791 51.2572C26.8135 51.239 39.5364 44.9764 45.4228 43.6861C51.4554 42.3653 68.7524 47.9831 68.8012 47.9951ZM31.0893 20.3641V21.1494L37.1839 21.9464L38.3848 25.8842L33.5607 29.256L34.4564 30.6132L40.2034 28.6352L43.4869 31.5138L41.2237 36.547L42.7787 37.3323L46.6167 33.1085L51.1084 34.1551L52.0242 39.5047H53.8154L54.7318 34.1551L59.2227 33.1085L63.0607 37.3323L64.6092 36.547L62.3533 31.5138L65.6362 28.6352L71.3833 30.6132L72.2788 29.256L67.4547 25.8842L68.6556 21.9464L74.7502 21.143V19.5791L68.6556 18.7757L67.4547 14.8377L72.2717 11.4662L71.3833 10.109L65.6362 12.087L62.3533 9.20835L64.6092 4.17477L63.0607 3.38981L59.2224 7.61341L54.7316 6.56066L53.8151 1.21707H52.024L51.1082 6.56066L46.6164 7.61341L42.7784 3.38961L41.2235 4.17457L43.4867 9.20815L40.2032 12.0868L34.4562 10.1088L33.5605 11.466L38.3846 14.8375L37.1837 18.7755L31.0891 19.5725V20.3641H31.0893Z" fill="white"/>
</svg>
